<?xml version="1.0" encoding="UTF-8"?><svg height="224" viewBox="0 0 197 224" width="197" xmlns="http://www.w3.org/2000/svg"><rect x="0" y="0" width="197" height="197" fill="#005c5f" /><g opacity=".3"><g fill="#fff"><path d="m108.879 59.174 4.329 2.393 2.165-3.475 2.277 3.931 3.077-4.272.341 7.405 1.862 28.976-13.293 11.241-3.646-5.164s-2.279-.381-4.937-8.887c-2.659-8.506 0 0 0 0l-6.911-5.013-4.406-2.583s1.746-1.671-2.582-4.102l2.544-4.253s3.19 1.557.57-.57l-.685-1.633 1.405-.19s-.835-2.278-2.05-2.393l2.316-.152s.456.988 1.025 1.481c0 0 3.418 2.583-.113 6.57 0 0 5.961 6.608 9.266 6.152 0 0 1.784-9.152 7.747-11.734l2.734-1.747-.305-1.519-1.859-.646-3.15-.15.494-3.304 5.849-.304-.381-.456z"/><path d="m119.382 120.821s-4.406-6.168-8.708-.467c0 0-.882 1.349-1.399 4.199l-4.096 16.589s-.207 3.059-2.592 1.763c0 0-1.555-.83-2.177-.208s-.208-.053-.208-.053-6.635 1.4-4.147 4.096c0 0 .363.467 1.297.312 0 0 .363 2.28 2.073 2.799 0 0-.985-1.971.207-2.902 0 0 1.4.881 1.4 2.021l1.088-1.659 4.354-.052 15.24-22.187z"/><path d="m127.572 119.11-9.797 13.686 10.16 10.315s-4.296-2.902-4.613 1.09c0 0-3.785-.467-2.074 4.094l1.555.208s.224-1.967 1.045-2.206c.062-.018.129-.026.199-.023.985.052-.07-.003-.07-.003l.227 2.284 1.088.156 1.297-2.073s4.665.258 5.702-.52l-2.54-6.272 2.332.208.052-1.399z"/><path d="m126.5 106.665 1.974-.95 4.748 13.633s1.671 2.545 1.747-1.404l1.177.227-.342 10.026-.835-.418s-2.658 1.025-4.559-7.481z"/><path d="m86.035 62.649.684.684-3.076 4.5s1.196 5.526-5.069 7.235l-2.62 3.588-.684-.398 2.733-3.817s-1.024-5.696 4.956-7.177z"/><path d="m98.227 74.783 6.494.114s-3.816 3.874-4.216 7.633h-2.165z"/><path d="m98.739 94.892h3.417s2.449 4.443 3.76 6.153h-6.551c0-.001.342-4.33-.626-6.153z"/><path d="m98.511 113.406h13.615l-1.767 5.809h-11.792z"/><path d="m98.739 124.57h9.855l-2.051 5.868-7.634.113z"/><path d="m99.593 134.996 6.039-.059-1.709 6.323-4.672.059z"/><path d="m115.942 135.508-3.987 5.469 11.222-.571-4.956-5.241s-.855.798-2.279.343z"/><path d="m97.885 65.611h7.576l-1.652 5.469h-5.698z"/><path d="m129.993 109.842 1.033 2.989 1.883-3.469-.036-12.254s.073-9.19-3.581-5.315l-3.986 3.986s-1.366.96-.997 2.917l2.437 9.485 1.697-2.694-.812-3.839s-.553-2.326.628-3.654l1.034-1.292s.922-1.218.997 1.07l.405 7.677c-.001.001.257 2.216-.702 4.393z"/><path d="m128.332 111.615-1.514 1.328-5.757-16.056-10.926 9.559 9.116 13.878-.258.518s-5.388-3.336-7.382 2.76c0 0 .057 5.127 5.07 8.886l.74.285 11.905-18.114z"/><path d="m106.258 64.586h11.336s1.424.399.171 1.083-.854.285-.854.285 0 1.197-1.082 1.367c0 0-1.025-.228-1.082-1.196h-7.178l-.456 2.222 3.532.113s3.589.684 1.311 3.703c0 0-.912 1.31-4.158 1.367h-5.641v-1.595h6.723s2.848-.57 2.05-1.823c0 0-.057-.513-1.195-.513h-4.443z"/><path d="m121.012 64.643v9.57h-13.102s-14.146 12.171-2.677 25.843l6.228-6.38.987 1.14-3.114 3.418 1.747 2.126 7.063-6 1.367 2.506s12.077-6.532 11.85-19.444c0 0-.419-11.355-10.349-12.779z"/><path d="m68.623 107.12.911 22.33s2.507-1.366 3.646 1.976c1.141 3.341-.303-24.685-.303-24.685l1.367-2.583s2.886-4.329-5.014-1.366l-.152 1.063 3.039-.835s2.354-1.215.986 1.214c0 0-.303.988-1.291 1.519 0-.001-3.037.152-3.189 1.367z"/><path d="m99.308 109.019s-1.291.304-2.278-1.595c0 0 .531-1.368.912-.913 0 0 1.822-2.277-1.443-4.405l1.139-.303s.988-9.191-8.431-14.735l-14.278-9.19 2.013-3.076-.835-.532.53-.987-.683-.759.797-.988-.607-1.329 1.102-.494.305-2.013.986.304.457-1.596 1.441.266.798-1.291 1.443.835.228-.38-.266-.57h.722l-.228-.684h.76l-.115-.569.722-.418s-5.089-2.506-12.456 6.836c-7.368 9.342-1.898 15.874-1.898 15.874s3.645 4.481 7.291 5.545c0 0 15.191 4.861 15.418 31.976l.076 21.419s2.432 5.848 7.444-2.051zm-8.308-14.456c-.902 1.804-3.504.45-3.504.45l-10.479-7.806-2.255.174-1.734-1.943.554-3.539 3.4-.833 1.008.729 1.561 2.082 11.346 7.529c.589.902 1.005 1.353.103 3.157z"/><path d="m86.434 64.814s3.152 2.621-.568 9.19l.342 2.43s-3.646 1.481-8.204 1.025l-.151-.645s4.823.304 7.709-1.026l-.189-1.291-4.748.835s-.531-.304.229-.569l.646-.114.151-.722 1.595-.304.076-1.253.835-.151-.075-1.405 1.367-.57-1.217-1.367.571-.76-.495-.797s.152-.646.723-.456l.037-.835.646.266-.189-.76.684.19-.267-.874z"/><circle cx="115.714" cy="66.257" r="1.29"/><circle cx="75.824" cy="84.129" r="1.463"/><circle cx="75.831" cy="84.253" r=".683"/><path d="m88.144 31.395v2.583h14.052l.986.987 2.279.912s6.455 4.481 5.24 13.52c0 0-1.063 6.532-6.304 9.039 0 0-9.646 4.101-15.267-2.203l-3.038 1.292s3.797 6.076 14.431 4.557c0 0 10.254-.759 12.457-12.456 0 0 1.898-10.026-6.153-15.571 0 0-4.784-3.797-16.786-3.038h-1.889z"/><path d="m113.491 43.378s.666 2.786.255 5.034l6.205-5.128s3.736-2.628 3.451 1.678c0 0 .063.696-2.564 2.627 0 0-6.808 5.794-7.092 7.092-.286 1.298 3.577-2.058 5.888-.19l6.079-10.669s1.646-4.781-3.262-4.844c0 0-1.424-.38-8.96 4.4z"/><path d="m125.854 47.098.457-2.621s5.752-3.931 8.544 1.481c0 0-.113 7.12 11.222 11.734 0 0 2.963-.854 3.76 2.165l.398 4.101s-11.962 18.058-8.771 34.008l1.366 3.418 5.583.228-6.722 1.595s-6.494-9.342 1.366-27.913c0 0 4.899-11.962 4.331-14.925 0 0-9.229-2.62-13.787-11.507 0 .002-2.164-5.011-7.747-1.764z"/><path d="m125.513 47.554-1.938 1.538s-5.07 10.595 9.628 9.285c0 0 5.81-1.652 5.81 4.671 0 0 .171 6.551-2.506 14.07 0 0-7.805 19.14-.399 26.317 0 0 2.62 3.19 2.279 4.443 0 0 14.241-6.266 15.266-.57 0 0 .57-4.33-4.329-4.215 0 0-5.811.684-9.912 2.733 0 0-6.836-12.417 3.305-35.545 0 0 5.811-9.684-2.279-11.962-.001.001-17.546-4.556-14.925-10.765z"/><path d="m150.919 126.223 3.532-3.077.341 29.166 1.254 3.646-3.19.684s-3.646-3.19-8.317-2.85c0 0 6.267-.683 6.495-4.556-.001.001 2.163-14.24-.115-23.013z"/><path d="m137.589 154.021-.228 3.418 5.925 3.76s.341-36.002 14.468-47.852l-1.708-2.276s-13.33 12.417-15.609 43.861z"/><path d="m153.652 107.994v2.62s-13.329 11.394-16.405 42.838l-2.165-.798s.798-26.773 6.494-35.091c0 0 4.899-5.582 12.076-9.569z"/><path d="m134.171 152.654-.228 3.531-12.645-5.925 8.658-.34z"/><path d="m134.513 156.471 2.393.911s-.058 7.234-1.823 9.513c0 0-20.336-19.768-29.166-6.267 0 0-3.133 2.906-6.323-.171 0 0-3.815-3.703-11.905-6.722 0 0-7.463 7.976-10.767 15.95 0 0-15.494-16.976-30.077-7.29l-1.367-.286-.512-40.9s13.557-.228 13.215-20.735c0 0 1.025-15.267-10.823-20.394l-.342-19.71 11.734-10.823s6.152 10.14 18.569 5.355v-6.38l2.052-1.481 2.051.342 1.709-1.14 1.822 3.304 2.506 4.216-3.987 2.392-1.139-1.481-2.051-.569-1.481.911 1.596.569.428 1.567-.314 1.282-.113 1.139-.457.797.343.912s-8.203 1.481-12.989-1.253l-8.885-6.494-8.66 12.304s21.609 37.104 5.053 58.979c0 0-7.9 10.785-5.317 32.811 0 0 9.114-10.634 27.646 5.925 0 0 7.292-13.52 11.089-11.848 0 0 3.627-.981 13.957 6.31 0 0 2.146-13.905 31.615 2.044z"/><path d="m68.623 65.536v5.621l-9.343-4.443s-1.214 3.646-.759 7.975c0 0 .455 5.013 2.506 8.962 0 0 11.279 15.457 2.734 30.496 0 0-6.835 12.531-5.127 25.976 0 0 1.368 11.394 11.508 13.899 0 0 14.013 3.986 10.596-11.051h11.963v2.506s-1.368-.228-1.822.285c0 0-1.368 2.221-3.875.228 0 0-2.393-1.367-3.532 1.424 0 0 .058 6.665-4.955 10.026 0 0-3.247 1.766-6.665-.74 0 0-12.988-6.949-17.889-4.443 0 0-5.238-7.805 4.559-28.426 0 0 4.215-9.342 5.24-17.658 0 0 1.254-6.836-3.759-20.166 0 0-7.862-20.508-2.393-25.977z"/><path d="m94.069 82.492-.665 2.342 1.354 2.917s1.885 1.217 4.755 5.741l.229.299 1.976.046s-1.813-3.767-.734-8.084c0 0-1.424 1.056-3.445-.644z"/><path d="m98.043 48.009s1.726 2.46 3.149-.076c0 0 .563.853-.286 1.835-.851.983-2.304.524-2.686-.078-.381-.602-.255-1.368-.177-1.681z"/><path d="m103.562 37.851-1.52 1.215-1.216 4.406-3.493 1.747-4.178.228-2.582-.835-1.063-.228-.229 1.139-1.023 2.43 2.469 3.798 1.975-.721 1.594 1.937-.759.987-2.203.912s7.596 6.532 14.735-1.595c-.001-.002 6.228-8.053-2.507-15.42zm.937 3.82s.861.369.614 1.374c-.246 1.005-1.66 1.251-2.255.984s-.595-.882-.677-1.128c.001 0 2.318 1.067 2.318-1.23zm.248 3.047s.908.468.648 1.741c-.259 1.273-1.752 1.584-2.379 1.247-.629-.338-.893-1.068-.979-1.379.001 0 2.71 1.3 2.71-1.609zm-2.095 7.889c-.629 1.475-2.511 1.482-3.186.918s-.814-1.512-.842-1.91c0 0 2.954 2.244 3.674-1.274.001 0 .983.791.354 2.266zm3.366-2.926c-.515 1.193-2.04 1.194-2.584.736-.547-.458-.656-1.227-.678-1.549 0 0 2.388 1.826 2.98-1.023 0 0 .794.642.282 1.836z"/><path d="m104.84 34.846c-2.385-.997-3.512-.086-3.512-.086h-3.988c-1.129-.478-1.691.434-1.691.434h-6.157l-.13 2.948c0 .997 1.041.911 1.041.911 1.864-.217 1.821.868 1.821.868v1.344c-4.032 1.301-3.903-2.298-3.903-2.298-1.301 5.376 3.643 3.295 3.643 3.295h1.604v-1.994c.086-2.645-3.079-2.168-3.079-2.168v-1.691h5.488c-.002.026-.008.05-.008.076 0 .628.509 1.137 1.138 1.137.627 0 1.137-.509 1.137-1.137 0-.368-.179-.692-.449-.9h3.145c.39.65.909.043.909.043 1.822-.78 2.992.521 2.992.521-1.214 1.561-3.686 1.474-3.686 1.474 2.038 8.498-6.33 7.371-6.33 7.371-5.16-.347-5.982-1.919-5.982-1.919v2.656h1.039v-.998c4.25 1.995 8.021.954 8.021.954 5.203-1.041 4.64-7.067 4.64-7.067 1.604-.347 2.341-1.387 2.341-1.387.261-.781 1.822-1.388 1.822-1.388-.738-.045-1.866-.999-1.866-.999z"/><path d="m91.258 33.065h1.062l-.645-4.405 1.861 2.621.19-3.684 1.442 3.836h.836l1.178-3.874 1.138 3.874h.799l1.443-3.608-.039 3.911 1.974-2.962-1.101 4.178h1.369l.948-6.608-2.468 2.734-.418-3.494-2.013 4.216-1.67-4.33-1.519 4.102-2.279-4.064-.38 3.19-2.544-2.279z"/><path d="m95.008 53.449-1.881-3.617-2.733 1.481.37.712 1.938-.997 1.025 2.079-8.83 4.7.398.74s1.453.171.712 1.823c0 0-.569-.626-1.651-.626 0 0-.57-.199-.371-1.253l-.769-.142s0 .997-2.278 1.68c0 0 .398-.854 0-1.538 0 0-.314-1.167 1.51-1.367 0 0-1.197.085-1.283-1.139 0 0 0-1.139-1.309-1.225 0 0 1.85-1.339 2.99 1.196l.312.712 4.928-2.792-4.614-8.374s-3.759 2.449-3.873.398c0 0 1.281-.341 1.565-1.225 0 0 1.368.2 1.396-.541 0 0-.228-.427-1.168-.74l.086-1.026s-.826-.854-1.566-1.082c0 0 2.278-1.025 3.076.199 0 0 .854 1.282.569 2.136l.712.114s.74-1.823 2.705-1.566c0 0 .314 1.196-1.195 2.193l2.108 3.475.37.114.283-.711-1.566-2.849s2.109-1.823-.398-4.358v1.225s-1.537.114-2.363 1.083c0 0-.627-2.792-3.219-2.25 0 0-.826.484-2.137.484-1.309 0 1.425 1.624 1.511 1.566.085-.057-.086.057-.086.057s-.085 1.282.569 1.794c0 0-1.253 1.652-2.193.569 0 0-.512 2.592.968 3.019 0 0 1.739.598 3.333-.912l3.816 6.921-3.161 1.937s-2.45-4.073-5.325-.171c0 0 2.221-.456 2.135 1.566l.4.228s-1.084.655-.57 1.937c0 0 .455 1.197-.713 1.652 0 0 1.994.57 3.732-.997 0 0 .284.854 1.709.911 0 0 1.082.427.541 1.396 0 0 2.877-2.506.74-4.044l8.716-4.671"/></g><path d="m148.013 75.523s1.994.171 1.994-.968c0 0 .114-.797-2.449-.456v-1.823h4.329v4.386l-5.127.456s-2.278 4.386.058 7.291" fill="none" stroke="#fff" stroke-miterlimit="10" stroke-width=".6836"/><path d="m152.285 71.935s4.216-1.652 6.096 3.077c0 0 2.165 4.785-5.525 9.171l-9.627 6.551s-.399-1.823-2.052-.456" fill="none" stroke="#fff" stroke-miterlimit="10" stroke-width=".6836"/><path d="m148.241 83.214-4.729 4.842s-.759-1.462-2.012-1.633" fill="none" stroke="#fff" stroke-miterlimit="10" stroke-width=".6836"/><path d="m152.969 84.524 5.014 15.723s-.969.398-.969 1.595" fill="none" stroke="#fff" stroke-miterlimit="10" stroke-width=".6836"/><path d="m148.526 87.372 4.102 5.127s-2.279-2.393-3.02 1.083c0 0-.342 1.766 5.696 6.323 0 0-3.36-.854-2.107 1.823" fill="none" stroke="#fff" stroke-miterlimit="10" stroke-width=".6836"/><path d="m155.191 90.904 2.904-2.165-.113-5.354s-.058-1.139-1.025-.341l-2.393 1.937 2.963 9.171s.171.513 1.138.569" fill="none" stroke="#fff" stroke-miterlimit="10" stroke-width=".6836"/><path d="m150.178 95.632-4.839 5.806" fill="none" stroke="#fff" stroke-miterlimit="10" stroke-width=".6836"/><path d="m142.472 100.409s.441-.974 1.726-.048l3.36-8.659s1.367-2.678 4.613.284" fill="none" stroke="#fff" stroke-miterlimit="10" stroke-width=".6836"/><path d="m50.896 86.42s-2.561.219-2.561-1.244c0 0-.146-1.024 3.146-.585v-2.341h-5.56v5.633l6.584.585s2.926 5.632-.073 9.363" fill="none" stroke="#fff" stroke-miterlimit="10" stroke-width=".8778"/><path d="m45.41 81.812s-5.414-2.122-7.828 3.95c0 0-2.779 6.145 7.096 11.777l12.363 8.414s.342-1.376 1.177-1.036" fill="none" stroke="#fff" stroke-miterlimit="10" stroke-width=".8778"/><path d="m50.604 96.296 6.071 6.218s-.219-1.403 1.392-1.623" fill="none" stroke="#fff" stroke-miterlimit="10" stroke-width=".8778"/><path d="m44.531 97.979-6.437 20.188s1.243.513 1.243 2.049" fill="none" stroke="#fff" stroke-miterlimit="10" stroke-width=".8778"/><path d="m50.238 101.637-5.268 6.583s2.926-3.072 3.877 1.39c0 0 .439 2.269-7.314 8.12 0 0 4.315-1.097 2.707 2.342" fill="none" stroke="#fff" stroke-miterlimit="10" stroke-width=".8778"/><path d="m41.47 107.158-2.923-3.114-.566-9.085s.072-1.463 1.316-.439l3.188 4.044-3.804 11.778" fill="none" stroke="#fff" stroke-miterlimit="10" stroke-width=".8778"/><path d="m47.546 112.93 2.507 4.481s1.746-2.165 2.24.722" fill="none" stroke="#fff" stroke-miterlimit="10" stroke-width=".8778"/><path d="m54.914 114.412s.344-2.072-3.532.342l-.95-5.697s-.705-5.299-4.876-1.494" fill="none" stroke="#fff" stroke-miterlimit="10" stroke-width=".8778"/><path d="m38.279 112.778s-.835-4.444.646-5.087c1.48-.647 1.178 1.024 1.178.987.001-.04-.077 1.48-1.824 4.1z" fill="#fff"/><path d="m53.091 89.46 1.823-1.633s-4.033-1.677-1.146-3.006" fill="none" stroke="#fff" stroke-miterlimit="10" stroke-width=".8778"/><path d="m53.888 92.118 2.333-2.204" fill="none" stroke="#fff" stroke-miterlimit="10" stroke-width=".8778"/><path d="m39.738 103.185 1.211-4.702s-1.418-2.696-1.764-1.141l.034.934z" fill="#fff"/><path d="m92.583 141.305.288-4.126-16.795.097s3.359 1.439 2.496 3.935c0 0 2.016-1.728 4.223-.192 0 0 2.783 1.056 4.223 0 0 0 2.11-1.055 3.454 0 0-.001.862.767 2.111.286z" fill="#fff"/><path d="m97.094 109.637c-1.345-.959-1.92-4.703-1.92-4.703l.096 10.748-4.126-3.166c-1.151-7.293-6.909-9.212-6.909-9.212-5.375-2.878-6.238-6.813-6.238-6.813-5.758 14.682 4.703 20.25 4.703 20.25-2.496.863-6.143-3.359-6.143-3.359-1.92 5.182.48 9.501.48 9.501-3.071 6.236 2.975 9.116 2.975 9.116 8.156 5.086 11.132-1.919 11.132-1.919 5.374.959 5.661 12.379 5.661 12.379 1.824.767 1.92-.287 1.92-.287zm-14.836 4.357s3.151-.38 3.57-1.025l-1.33-.874s-2.507.646-3.912-.228c0 0 3.305-.19 3.342-.532l-1.253-1.291s-1.785.949-3.76-.152c0 0 3.151-.037 3.19-.568l-1.063-1.48s-1.254.759-3.153-.496c0 0 2.659.496 2.85 0l-.76-1.441s-1.634.227-2.316-.989c0 0 1.975.571 1.937.153 0 0-1.823-4.642-.931-3.974 0 0 2.111 6.334 6.334 9.405l4.223 2.782.191 1.057s-.768.863-4.031 1.15l2.304-1.247-1.064-.706c-.002 0-1.673 1.064-4.368.456zm7.062 15.798s-.874.532-1.633-.303l-.57-.304s-1.633 3.266-6.228 1.366c0 0 4.86.266 4.747-2.354l-1.291-1.102s-2.013 2.999-5.962.76c0 0 4.899.57 4.937-1.747l-1.48-1.519s-3.039 1.86-4.443.19c0 0 3.151 0 3.531-1.141l-1.291-1.746s-1.975.342-2.203-.569l1.634-.229s-1.292-2.239-.798-2.657c0 0 1.633 4.14 9.684 9.456-.001 0 1.821 1.064 1.366 1.899zm2.112-1.538s1.248-5.086-2.688-8.349c0 0-4.223-2.303-4.415-2.975 0 0 4.991 1.919 7.391-1.728 0 0 3.167 1.822 3.838 4.413l.191 11.612c0 .002-2.591-2.589-4.317-2.973z" fill="#fff"/></g><path d="m18.057 94.918 1.393 10.865c.27 2.603.493 4.265.628 5.702h.135c.539-1.391 1.167-2.962 2.38-5.566l5.432-11h5.792l-12.167 21.864h-5.252l-3.728-21.865z" fill="#fff"/><path d="m43.488 116.783c0-1.303.18-3.054.359-4.895h-.09c-2.154 3.996-5.072 5.388-7.855 5.388-3.906 0-6.465-3.052-6.465-7.452 0-7.453 5.207-15.399 15.398-15.399 2.379 0 4.938.449 6.645.988l-2.29 11.404c-.628 3.232-.987 7.363-.897 9.966zm2.111-18.093c-.538-.135-1.212-.225-2.155-.225-4.803 0-8.574 5.433-8.574 10.417 0 2.289.854 4.174 3.143 4.174 2.469 0 5.432-3.052 6.465-8.619z" fill="#fff"/><path d="m72.119 94.918-2.873 15.085c-.494 2.604-.809 4.893-1.078 6.779h-4.669l.493-3.816h-.09c-2.109 2.828-4.848 4.31-7.587 4.31-3.187 0-5.701-1.705-5.701-6.195 0-1.167.135-2.424.448-3.906l2.335-12.256h5.208l-2.244 11.941c-.225 1.078-.359 2.155-.359 3.008 0 1.797.718 3.099 2.783 3.099 2.424 0 5.207-2.872 6.105-7.408l1.975-10.64h5.254z" fill="#fff"/><path d="m70.131 116.783 6.061-31.875h5.252l-6.105 31.875z" fill="#fff"/><path d="m84.797 94.918 1.661 3.951c.673 1.615 1.077 2.693 1.437 3.591h.135c.809-1.167 1.348-2.065 2.334-3.411l3.144-4.131h6.016l-9.204 10.64 5.119 11.224h-5.749l-1.751-4.13c-.674-1.617-1.032-2.559-1.481-3.906h-.09c-.628.987-1.257 2.065-2.245 3.501l-3.412 4.535h-6.061l9.518-11.269-5.117-10.596h5.746z" fill="#fff"/><path d="m118.134 94.918 1.392 10.865c.271 2.603.494 4.265.628 5.702h.136c.538-1.391 1.167-2.962 2.38-5.566l5.432-11h5.791l-12.167 21.864h-5.251l-3.727-21.864h5.386z" fill="#fff"/><path d="m146.418 115.525c-2.154 1.124-5.073 1.751-7.723 1.751-6.059 0-8.978-3.726-8.978-9.068 0-6.599 4.848-13.783 12.391-13.783 4.31 0 7.049 2.469 7.049 6.15 0 5.613-5.882 7.409-14.321 7.229-.09.764.09 2.245.583 3.099.853 1.481 2.424 2.243 4.489 2.243 2.47 0 4.444-.629 6.016-1.436zm-4.982-17.194c-3.278 0-5.434 2.918-6.061 5.567 5.387.044 8.843-.674 8.843-3.323 0-1.392-1.122-2.244-2.782-2.244z" fill="#fff"/><path d="m146.943 116.783 6.061-31.875h5.254l-6.106 31.875z" fill="#fff"/><path d="m164.652 116.783 2.828-15.084c.539-2.604.853-4.894 1.122-6.78h4.67l-.494 3.906h.089c2.021-2.918 4.804-4.399 7.857-4.399 3.143 0 5.566 1.886 5.566 6.016 0 .988-.179 2.515-.403 3.591l-2.379 12.75h-5.254l2.336-12.346c.134-.809.269-1.75.269-2.604 0-1.841-.674-3.143-2.738-3.143-2.38 0-5.433 2.873-6.375 7.991l-1.886 10.102z" fill="#fff"/><path d="m102.248 110.62c-.944.491-2.224.768-3.385.768-2.655 0-3.935-1.633-3.935-3.975 0-2.893 2.125-6.04 5.431-6.04 1.889 0 3.089 1.082 3.089 2.695 0 2.46-2.578 3.247-6.276 3.168-.039.334.039.983.256 1.357.373.649 1.062.984 1.968.984 1.082 0 1.947-.276 2.637-.63zm-2.184-7.537c-1.438 0-2.381 1.279-2.656 2.44 2.361.02 3.876-.296 3.876-1.456 0-.61-.492-.984-1.22-.984z" fill="#fff"/><path d="m102.825 111.169 1.24-6.61c.236-1.142.374-2.145.492-2.971h2.046l-.217 1.711h.04c.885-1.278 2.105-1.927 3.443-1.927 1.376 0 2.439.826 2.439 2.636 0 .434-.078 1.102-.176 1.575l-1.044 5.587h-2.302l1.022-5.41c.06-.355.118-.767.118-1.141 0-.807-.295-1.377-1.199-1.377-1.044 0-2.382 1.258-2.795 3.501l-.826 4.427h-2.281z" fill="#fff"/><path d="m157.6 116.824-.177-21.926h10.246l-7.773 21.926zm2.804-25.749c0-1.846 1.439-3.152 3.151-3.152 1.666 0 2.792 1.125 2.792 2.792-.046 1.936-1.486 3.152-3.286 3.152-1.576-.001-2.657-1.127-2.657-2.792z" fill="#fff"/><g fill="#005C5F"><path d="m12.094 214.713c-.09-1.693-.198-3.728-.18-5.24h-.054c-.414 1.423-.918 2.936-1.53 4.609l-2.143 5.888h-1.189l-1.963-5.779c-.576-1.711-1.062-3.277-1.404-4.718h-.036c-.036 1.513-.126 3.547-.234 5.366l-.324 5.203h-1.495l.846-12.136h1.999l2.071 5.87c.504 1.494.918 2.826 1.224 4.087h.054c.306-1.225.738-2.557 1.278-4.087l2.161-5.87h1.999l.756 12.136h-1.531z"/><path d="m24.656 214.353h-4.717v4.375h5.257v1.314h-6.824v-12.136h6.554v1.314h-4.987v3.835h4.717zm-.306-9.201-2.287 2.106h-1.296l1.674-2.106z"/><path d="m31.854 209.239h-3.691v-1.332h8.985v1.332h-3.709v10.804h-1.585z"/><path d="m40.529 208.069c.792-.162 1.927-.252 3.007-.252 1.674 0 2.754.306 3.511.99.612.54.955 1.368.955 2.305 0 1.603-1.008 2.665-2.287 3.097v.055c.937.323 1.495 1.188 1.783 2.448.396 1.692.684 2.863.937 3.331h-1.621c-.198-.342-.468-1.387-.811-2.898-.36-1.675-1.008-2.305-2.431-2.359h-1.476v5.258h-1.567zm1.567 5.527h1.602c1.675 0 2.737-.918 2.737-2.305 0-1.566-1.135-2.25-2.791-2.269-.756 0-1.296.072-1.548.145z"/><path d="m62.673 213.848c0 4.178-2.539 6.393-5.636 6.393-3.205 0-5.456-2.485-5.456-6.158 0-3.853 2.395-6.374 5.636-6.374 3.313-.001 5.456 2.539 5.456 6.139zm-9.417.198c0 2.593 1.404 4.916 3.871 4.916 2.485 0 3.889-2.287 3.889-5.042 0-2.412-1.26-4.934-3.871-4.934-2.593.001-3.889 2.396-3.889 5.06z"/><path d="m66.737 208.051c.756-.126 1.747-.234 3.007-.234 1.548 0 2.683.36 3.403 1.008.666.576 1.062 1.459 1.062 2.539 0 1.099-.324 1.963-.937 2.593-.828.883-2.179 1.333-3.709 1.333-.468 0-.9-.019-1.26-.108v4.861h-1.567v-11.992zm1.567 5.852c.342.09.774.126 1.296.126 1.891 0 3.043-.918 3.043-2.593 0-1.603-1.135-2.377-2.863-2.377-.684 0-1.206.054-1.476.126z"/><path d="m88.719 213.848c0 4.178-2.539 6.393-5.636 6.393-3.205 0-5.456-2.485-5.456-6.158 0-3.853 2.395-6.374 5.636-6.374 3.313-.001 5.456 2.539 5.456 6.139zm-9.417.198c0 2.593 1.404 4.916 3.871 4.916 2.485 0 3.889-2.287 3.889-5.042 0-2.412-1.26-4.934-3.871-4.934-2.593.001-3.889 2.396-3.889 5.06z"/><path d="m92.783 207.907h1.567v10.821h5.185v1.314h-6.752z"/><path d="m109.597 214.353h-4.718v4.375h5.258v1.314h-6.824v-12.136h6.554v1.314h-4.987v3.835h4.718v1.298z"/><path d="m120.053 208.069c.954-.144 2.089-.252 3.331-.252 2.251 0 3.854.522 4.916 1.513 1.08.99 1.71 2.395 1.71 4.357 0 1.98-.612 3.601-1.746 4.717-1.135 1.135-3.007 1.747-5.366 1.747-1.116 0-2.053-.055-2.845-.145zm1.566 10.731c.396.072.973.09 1.585.09 3.349 0 5.167-1.872 5.167-5.149.019-2.863-1.603-4.682-4.915-4.682-.811 0-1.423.072-1.837.162z"/><path d="m140.358 214.353h-4.718v4.375h5.258v1.314h-6.824v-12.136h6.554v1.314h-4.987v3.835h4.718v1.298z"/><path d="m150.813 207.907h1.566v10.821h5.186v1.314h-6.752z"/><path d="m162.532 220.042v-5.149l-3.835-6.986h1.782l1.711 3.35c.468.918.828 1.656 1.206 2.502h.036c.342-.792.756-1.584 1.225-2.502l1.746-3.35h1.782l-4.069 6.968v5.168h-1.584z"/><path d="m181.326 213.848c0 4.178-2.538 6.393-5.636 6.393-3.205 0-5.455-2.485-5.455-6.158 0-3.853 2.395-6.374 5.636-6.374 3.313-.001 5.455 2.539 5.455 6.139zm-9.417.198c0 2.593 1.405 4.916 3.871 4.916 2.485 0 3.89-2.287 3.89-5.042 0-2.412-1.261-4.934-3.871-4.934-2.593.001-3.89 2.396-3.89 5.06z"/><path d="m185.392 220.042v-12.136h1.711l3.889 6.14c.9 1.423 1.603 2.701 2.179 3.943l.036-.018c-.144-1.621-.18-3.098-.18-4.987v-5.078h1.477v12.136h-1.585l-3.853-6.158c-.847-1.35-1.657-2.736-2.27-4.051l-.054.018c.09 1.531.126 2.989.126 5.006v5.186h-1.476z"/></g></svg>
